<?xml version="1.0" standalone="no"?><!DOCTYPE svg PUBLIC "-//W3C//DTD SVG 1.1//EN" "http://www.w3.org/Graphics/SVG/1.1/DTD/svg11.dtd"><svg t="1631655426240" class="icon" viewBox="0 0 1024 1024" version="1.1" xmlns="http://www.w3.org/2000/svg" p-id="3740" xmlns:xlink="http://www.w3.org/1999/xlink" width="200" height="200"><defs><style type="text/css"></style></defs><path d="M515.925333 79.018667A84.508444 84.508444 0 1 1 681.898667 110.933333a84.508444 84.508444 0 0 1-165.973334-31.914666zM167.992889 722.887111l166.570667-14.165333c2.56-0.227556 5.006222-0.853333 7.395555-1.422222a46.136889 46.136889 0 0 0 38.087111-24.177778l77.283556-143.473778 117.105778 80.128 64.398222 178.460444a46.307556 46.307556 0 1 0 86.613333-32.910222l-67.527111-187.249778a45.511111 45.511111 0 0 0-13.482667-18.716444 45.852444 45.852444 0 0 0-12.174222-12.344889l-130.844444-89.486222 58.993777-119.552 24.177778 30.464c1.991111 2.474667 4.266667 4.579556 6.627556 6.456889 10.666667 12.515556 28.216889 17.806222 44.515555 11.861333l119.267556-43.434667a40.305778 40.305778 0 0 0-27.790222-75.662222l-92.899556 33.792-39.310222-49.521778a73.528889 73.528889 0 0 0-41.614222-67.669333 73.216 73.216 0 0 0-60.558223-1.308444l-110.08-19.683556a39.139556 39.139556 0 0 0-10.467555-0.341333 40.106667 40.106667 0 0 0-27.562667 7.68l-102.058666 75.377778a40.305778 40.305778 0 1 0 48.099555 64.682666l89.372445-65.991111 57.258666 10.24-69.546666 141.027556c-2.844444 5.916444-4.750222 12.060444-5.916445 18.204444-0.711111 0.967111-1.536 1.706667-2.218667 2.673778a46.307556 46.307556 0 0 0 12.145778 64.369778l8.533334 5.859555-70.456889 130.787556-150.584889 12.771555a46.336 46.336 0 1 0 8.647111 92.273778z m809.386667-373.475555a49.664 49.664 0 0 0-61.525334 33.678222L774.656 866.844444 46.250667 922.083556c-1.052444 0.085333-1.991111 0.426667-3.015111 0.568888-1.735111 0.199111-3.441778 0.455111-5.12 0.881778-1.536 0.398222-3.015111 0.853333-4.522667 1.422222-1.564444 0.568889-3.100444 1.109333-4.579556 1.820445-1.450667 0.682667-2.844444 1.422222-4.181333 2.275555a49.208889 49.208889 0 0 0-4.010667 2.56c-1.28 0.938667-2.474667 1.991111-3.669333 3.043556a45.198222 45.198222 0 0 0-6.4 6.912c-0.967111 1.251556-1.934222 2.56-2.787556 3.925333a50.887111 50.887111 0 0 0-5.660444 13.198223 45.681778 45.681778 0 0 0-1.080889 4.693333c-0.284444 1.649778-0.398222 3.328-0.483555 5.034667-0.085333 1.080889-0.341333 2.076444-0.341334 3.128888 0 0.654222 0.170667 1.28 0.199111 1.905778 0 0.625778-0.113778 1.194667-0.056889 1.848889 0.085333 1.109333 0.426667 2.133333 0.568889 3.185778 0.227556 1.592889 0.426667 3.128889 0.796445 4.664889 0.398222 1.649778 0.938667 3.185778 1.479111 4.778666 0.512 1.422222 0.967111 2.816 1.592889 4.152889 0.711111 1.564444 1.564444 3.015111 2.417778 4.494223 0.739556 1.251556 1.422222 2.446222 2.218666 3.640888 1.024 1.365333 2.133333 2.673778 3.271111 3.982223 0.938667 1.024 1.792 2.076444 2.787556 3.043555 1.251556 1.194667 2.645333 2.247111 3.982222 3.299556 1.109333 0.853333 2.133333 1.735111 3.299556 2.531555 1.507556 0.967111 3.128889 1.706667 4.721777 2.56 1.166222 0.568889 2.304 1.28 3.555556 1.792 1.905778 0.768 3.925333 1.28 5.973333 1.848889 1.024 0.284444 1.991111 0.682667 3.072 0.910222 3.128889 0.625778 6.371556 0.995556 9.671111 0.995556H870.513778a49.607111 49.607111 0 0 0 0-99.185778h-8.590222l149.219555-511.061333a49.635556 49.635556 0 0 0-33.735111-61.553778z" p-id="3741"></path></svg>