<?xml version="1.0" standalone="no"?><!DOCTYPE svg PUBLIC "-//W3C//DTD SVG 1.1//EN" "http://www.w3.org/Graphics/SVG/1.1/DTD/svg11.dtd"><svg t="1631655431627" class="icon" viewBox="0 0 1024 1024" version="1.1" xmlns="http://www.w3.org/2000/svg" p-id="4032" xmlns:xlink="http://www.w3.org/1999/xlink" width="200" height="200"><defs><style type="text/css"></style></defs><path d="M978.24 1021.824h-273.28c-24.32 0-44.096-19.904-44.096-44.256v-521.6c0-24.384 19.808-44.192 44.128-44.192h21.344V181.568c1.568-25.28 17.792-73.216 68.96-105.6 17.152-10.976 33.376-23.936 47.84-35.552 29.216-23.36 50.336-40.32 73.856-40.32 17.984 0 47.936 9.056 47.936 69.568v342.08h13.28c24.32 0 44.128 19.84 44.128 44.256v521.568c0 24.48-19.808 44.256-44.128 44.256z m-58.144-455.264a31.872 31.872 0 0 0-31.872-31.904 31.872 31.872 0 0 0-32 31.904v288.832a31.936 31.936 0 0 0 63.872 0v-288.832z m-477.44-96.736c-0.48 0.736-1.44 1.024-2.08 1.664 12.64 108.576 52.864 457.984 52.864 486.976 0 43.584-41.056 63.36-79.136 63.36H271.104c-36.192 0-61.984-9.28-76.704-27.84-12.064-15.136-13.632-32.768-10.88-44.224l52.896-475.904c-1.472-1.184-3.2-1.888-4.48-3.392L8.032 206.976a32 32 0 0 1-2.432-38.208C10.144 161.952 118.08 0.128 329.472 0.128c210.88 0 323.264 159.456 328.064 166.176 7.968 11.616 7.36 27.168-1.504 38.176l-213.376 265.344z m-52.864 119.328l-7.36-63.872H294.72l-7.04 63.872h102.08zM301.888 282.72a31.968 31.968 0 0 0-62.08 15.104l28.288 116.736 65.792 0.608-32-132.48z m96.544-23.904a32 32 0 0 0-37.216 25.664l-23.84 130.688h64.96l21.824-119.168a32 32 0 0 0-25.728-37.184z" p-id="4033"></path></svg>