<?xml version="1.0" standalone="no"?><!DOCTYPE svg PUBLIC "-//W3C//DTD SVG 1.1//EN" "http://www.w3.org/Graphics/SVG/1.1/DTD/svg11.dtd"><svg t="1632501713720" class="icon" viewBox="0 0 1024 1024" version="1.1" xmlns="http://www.w3.org/2000/svg" p-id="11374" xmlns:xlink="http://www.w3.org/1999/xlink" width="200" height="200"><defs><style type="text/css"></style></defs><path d="M948.174 230.261h-204.522c12.522-20.87 18.783-45.913 18.783-70.957 2.087-62.609-41.739-127.304-127.304-127.304-39.653 0-70.957 12.522-98.087 39.652-14.609 14.609-25.043 31.304-33.391 50.087-8.348-18.783-18.783-35.478-33.391-50.087-25.043-25.043-56.347-39.652-96-39.652-50.087 0-79.304 22.957-96 41.739-20.87 22.957-31.304 54.261-31.304 87.652 0 25.043 6.261 48 18.783 70.957h-189.913c-16.696 0-31.304 14.609-31.304 31.304v277.566c0 16.696 14.609 31.304 31.304 31.304h41.739v390.261c-2.087 14.609 12.522 29.217 29.217 29.217h730.434c16.696 0 31.304-14.609 31.304-31.304v-390.261h41.739c16.696 0 31.304-14.609 31.304-31.304v-277.566c-2.087-16.696-16.696-31.304-33.391-31.304v0zM580.87 115.478c14.609-14.609 33.391-22.957 54.261-22.957 50.087 0 66.783 35.478 66.783 66.783 0 18.783-6.261 37.566-16.696 50.087-12.522 14.609-29.217 20.87-50.087 20.87h-98.087c6.261-35.478 16.696-85.566 43.826-114.783v0zM307.478 161.391c0-18.783 6.261-35.478 16.696-48 12.522-12.522 29.217-20.87 50.087-20.87 22.957 0 39.652 6.261 54.261 20.87 27.13 29.217 37.566 79.304 41.739 116.87h-96c-52.174 0-66.783-43.826-66.783-68.87v0zM105.043 292.87h292.174v217.043h-292.174v-217.043zM178.087 570.434h219.13v361.043h-219.13v-361.043zM457.739 931.478v-638.609h106.434v638.609h-106.434zM845.913 931.478h-219.13v-361.043h219.13v361.043zM918.957 509.913h-292.174v-217.043h290.087v217.043h2.087zM918.957 509.913z" p-id="11375"></path></svg>