<?xml version="1.0" standalone="no"?><!DOCTYPE svg PUBLIC "-//W3C//DTD SVG 1.1//EN" "http://www.w3.org/Graphics/SVG/1.1/DTD/svg11.dtd"><svg t="1631655381231" class="icon" viewBox="0 0 1024 1024" version="1.1" xmlns="http://www.w3.org/2000/svg" p-id="2122" xmlns:xlink="http://www.w3.org/1999/xlink" width="200" height="200"><defs><style type="text/css"></style></defs><path d="M863.021834 459.085881L521.688501 132.657933c-19.377001-17.886463-49.187773-17.886463-67.074236 0l-342.823872 326.427948c-1.490539 0-4.471616 1.490539-4.471616 4.471615v442.689957h287.673945V617.082969c0-2.981077 2.981077-5.962154 5.962154-5.962154h171.411936c2.981077 0 5.962154 2.981077 5.962155 5.962154v289.164484h287.673944V463.557496c2.981077-2.981077 0-4.471616-2.981077-4.471615zM232.524017 649.874818h-65.583697c-2.981077 0-5.962154-2.981077-5.962154-5.962154V596.215429h73.03639v53.659389z m0-67.074236h-73.03639V536.593886c0-2.981077 2.981077-5.962154 5.962155-5.962154h65.583697v52.16885z m86.451238 59.621543c0 2.981077-2.981077 5.962154-5.962155 5.962154h-65.583697V596.215429h73.03639v46.206696z m0-59.621543h-73.03639v-52.16885H313.0131c2.981077 0 5.962154 2.981077 5.962155 5.962154v46.206696zM730.363901 649.874818h-65.583697c-2.981077 0-5.962154-2.981077-5.962155-5.962154V596.215429H730.363901v53.659389z m0-67.074236h-73.03639V536.593886c0-2.981077 2.981077-5.962154 5.962154-5.962154H730.363901v52.16885z m86.451237 59.621543c0 2.981077-2.981077 5.962154-5.962154 5.962154H745.269287V596.215429h73.03639v46.206696z m0-59.621543h-73.03639v-52.16885h65.583697c2.981077 0 5.962154 2.981077 5.962155 5.962154v46.206696z" p-id="2123"></path><path d="M87.941776 408.407569L453.123726 59.621543c19.377001-17.886463 49.187773-17.886463 67.074236 0l365.181951 350.276565c19.377001 17.886463 11.924309 32.791849-14.905386 32.791848h-2.981077L520.197962 108.809316c-19.377001-17.886463-49.187773-17.886463-67.074236 0L105.828239 441.199418h-4.471616c-26.829694 0-32.791849-14.905386-13.414847-32.791849z" p-id="2124"></path></svg>