<?xml version="1.0" standalone="no"?><!DOCTYPE svg PUBLIC "-//W3C//DTD SVG 1.1//EN" "http://www.w3.org/Graphics/SVG/1.1/DTD/svg11.dtd"><svg t="1631655396829" class="icon" viewBox="0 0 1024 1024" version="1.1" xmlns="http://www.w3.org/2000/svg" p-id="2415" xmlns:xlink="http://www.w3.org/1999/xlink" width="200" height="200"><defs><style type="text/css"></style></defs><path d="M864 800a32 32 0 0 0 32-32v-192a32 32 0 0 0-32-32H160a32 32 0 0 0-32 32v192a32 32 0 0 0 32 32z m0 64H160a96 96 0 0 1-96-96v-192a96 96 0 0 1 96-96h704a96 96 0 0 1 96 96v192a96 96 0 0 1-96 96z" p-id="2416"></path><path d="M352 672a64 64 0 1 1-64-64 64 64 0 0 1 64 64zM512 672a64 64 0 1 1-64-64 64 64 0 0 1 64 64zM672 672a64 64 0 1 1-64-64 64 64 0 0 1 64 64zM736 224a32 32 0 0 1 64 0v256a32 32 0 0 1-64 0zM224 224a32 32 0 0 1 64 0v256a32 32 0 0 1-64 0z" p-id="2417"></path></svg>